<mxfile host="app.diagrams.net" modified="2024-03-27T10:07:49.808Z" agent="Mozilla/5.0 (Macintosh; Intel Mac OS X 10.15; rv:124.0) Gecko/20100101 Firefox/124.0" etag="e6uR5vSsxMqQSdT_UZwF" version="24.2.0" type="github">
  <diagram name="Page-1" id="IxVRKUZ4d-eOPGK8DkyO">
    <mxGraphModel dx="693" dy="629" grid="0" gridSize="10" guides="1" tooltips="1" connect="1" arrows="1" fold="1" page="0" pageScale="1" pageWidth="850" pageHeight="1100" math="0" shadow="0">
      <root>
        <mxCell id="0" />
        <mxCell id="1" parent="0" />
        <mxCell id="d8OSMjnmF-pscPFN7mtC-1" value="System Design" style="whiteSpace=wrap;html=1;aspect=fixed;" vertex="1" parent="1">
          <mxGeometry x="160" y="17" width="68" height="68" as="geometry" />
        </mxCell>
      </root>
    </mxGraphModel>
  </diagram>
</mxfile>
